<svg width="18" height="18" viewBox="0 0 18 18" fill="none" xmlns="http://www.w3.org/2000/svg">
<path d="M4.50051 0.251874C5.53101 1.00269 6.33342 2.02751 7.01862 3.00817L7.41712 3.58863L7.79307 4.14296C7.98113 4.41762 8.06153 4.75185 8.01897 5.08197C7.97641 5.41208 7.81385 5.715 7.56227 5.93302L5.80329 7.23906C5.71831 7.30041 5.65849 7.39051 5.63494 7.49262C5.6114 7.59474 5.62573 7.70193 5.67527 7.79428C6.07376 8.51806 6.7824 9.59606 7.59383 10.4073C8.40615 11.2185 9.53492 11.9738 10.3094 12.4172C10.4065 12.4717 10.5208 12.487 10.6288 12.4598C10.7368 12.4327 10.8302 12.3652 10.89 12.2712L12.035 10.5289C12.2455 10.2494 12.556 10.0621 12.9016 10.0063C13.2471 9.95055 13.6008 10.0306 13.8886 10.2297L14.4864 10.6434C15.6034 11.4186 16.8034 12.2992 17.7213 13.4736C17.8668 13.6609 17.9594 13.8838 17.9894 14.1191C18.0194 14.3544 17.9856 14.5934 17.8917 14.8112C17.137 16.5715 15.2275 18.0704 13.2413 17.9974L12.9708 17.9821L12.7608 17.9641L12.5282 17.9371L12.2748 17.9028L11.9998 17.8577C11.9517 17.8491 11.9036 17.84 11.8556 17.8307L11.5527 17.7658C11.4997 17.7542 11.4468 17.7421 11.394 17.7297L11.064 17.645L10.7169 17.5459L10.3545 17.4287C8.69014 16.8645 6.57775 15.7558 4.41035 13.589C2.24386 11.4231 1.13492 9.31123 0.570529 7.64736L0.453324 7.28502L0.35415 6.93801L0.269402 6.60812L0.199079 6.29625C0.178767 6.19858 0.159832 6.10063 0.142279 6.00242L0.0972003 5.72751L0.061137 5.47423L0.0349913 5.24169L0.0169597 5.03168L0.0025345 4.76127C-0.0704933 2.78193 1.44506 0.859377 3.19773 0.108561C3.40868 0.0174959 3.63968 -0.0171754 3.86808 0.00794945C4.09648 0.0330743 4.31441 0.117132 4.50051 0.251874ZM11.8348 3.49219L11.9394 3.50391C12.5957 3.61963 13.1985 3.9401 13.6614 4.41938C14.1242 4.89865 14.4235 5.51212 14.5161 6.17187C14.5492 6.40007 14.4935 6.63226 14.3605 6.82066C14.2276 7.00906 14.0274 7.13935 13.8013 7.18473C13.5752 7.2301 13.3402 7.18711 13.1448 7.0646C12.9494 6.94209 12.8084 6.74937 12.7509 6.5261L12.7301 6.42244C12.6938 6.16385 12.5834 5.92129 12.4122 5.72407C12.2411 5.52685 12.0164 5.38342 11.7654 5.31109L11.6257 5.27954C11.3993 5.23943 11.1968 5.11436 11.0596 4.92992C10.9224 4.74548 10.8608 4.5156 10.8876 4.2873C10.9143 4.059 11.0272 3.84953 11.2033 3.70173C11.3794 3.55394 11.6053 3.47898 11.8348 3.49219ZM11.8421 0.752117C13.2767 0.752117 14.6527 1.32189 15.6671 2.33609C16.6816 3.3503 17.2515 4.72585 17.2515 6.16015C17.2513 6.38989 17.1633 6.61085 17.0055 6.7779C16.8478 6.94495 16.6322 7.04548 16.4028 7.05894C16.1734 7.07241 15.9475 6.99779 15.7713 6.85034C15.5951 6.70289 15.4818 6.49373 15.4547 6.26561L15.4484 6.16015C15.4487 5.24477 15.1006 4.36357 14.4747 3.69546C13.8487 3.02736 12.992 2.62244 12.0783 2.56291L11.8421 2.5548C11.6029 2.5548 11.3736 2.45983 11.2046 2.2908C11.0355 2.12177 10.9405 1.89251 10.9405 1.65346C10.9405 1.41441 11.0355 1.18515 11.2046 1.01611C11.3736 0.847079 11.6029 0.752117 11.8421 0.752117Z" fill="#2D3970"/>
</svg>
