<svg width="32" height="32" viewBox="0 0 32 32" fill="none" xmlns="http://www.w3.org/2000/svg">
<path d="M9.14256 3.25998C10.6666 4.37065 11.8532 5.88665 12.8666 7.33732L13.4559 8.19598L14.0119 9.01598C14.29 9.42229 14.4089 9.91671 14.346 10.405C14.283 10.8934 14.0426 11.3415 13.6706 11.664L11.0692 13.596C10.9436 13.6867 10.8551 13.82 10.8203 13.9711C10.7854 14.1221 10.8066 14.2807 10.8799 14.4173C11.4692 15.488 12.5172 17.0827 13.7172 18.2827C14.9186 19.4827 16.5879 20.6 17.7332 21.256C17.8768 21.3366 18.0459 21.3591 18.2056 21.319C18.3653 21.2788 18.5035 21.1789 18.5919 21.04L20.2852 18.4627C20.5965 18.0491 21.0558 17.7721 21.5668 17.6896C22.0778 17.607 22.6009 17.7255 23.0266 18.02L23.9106 18.632C25.5626 19.7787 27.3372 21.0813 28.6946 22.8187C28.9098 23.0957 29.0468 23.4255 29.0911 23.7735C29.1354 24.1216 29.0855 24.4751 28.9466 24.7973C27.8306 27.4013 25.0066 29.6187 22.0692 29.5107L21.6692 29.488L21.3586 29.4613L21.0146 29.4213L20.6399 29.3707L20.2332 29.304C20.162 29.2911 20.0909 29.2778 20.0199 29.264L19.5719 29.168C19.4935 29.1508 19.4153 29.133 19.3372 29.1147L18.8492 28.9893L18.3359 28.8427L17.7999 28.6693C15.3386 27.8347 12.2146 26.1947 9.00923 22.9893C5.80523 19.7853 4.16523 16.6613 3.33056 14.2L3.15723 13.664L3.01056 13.1506L2.88523 12.6626L2.78123 12.2013C2.75119 12.0568 2.72319 11.9119 2.69723 11.7666L2.63056 11.36L2.57723 10.9853L2.53856 10.6413L2.5119 10.3306L2.49056 9.93065C2.38256 7.00265 4.6239 4.15865 7.2159 3.04798C7.52787 2.91327 7.8695 2.86198 8.20727 2.89915C8.54504 2.93632 8.86735 3.06066 9.14256 3.25998V3.25998ZM19.9892 8.05332L20.1439 8.07065C21.1144 8.24184 22.0059 8.71591 22.6904 9.42489C23.375 10.1339 23.8175 11.0414 23.9546 12.0173C24.0034 12.3549 23.9211 12.6984 23.7244 12.9771C23.5278 13.2558 23.2318 13.4485 22.8974 13.5156C22.563 13.5827 22.2155 13.5191 21.9266 13.3379C21.6376 13.1567 21.4291 12.8716 21.3439 12.5413L21.3132 12.388C21.2596 12.0055 21.0963 11.6466 20.8431 11.3549C20.59 11.0632 20.2577 10.851 19.8866 10.744L19.6799 10.6973C19.3451 10.638 19.0456 10.453 18.8427 10.1801C18.6398 9.90728 18.5488 9.56723 18.5883 9.22951C18.6278 8.89179 18.7948 8.58193 19.0553 8.36329C19.3157 8.14466 19.6498 8.03377 19.9892 8.05332V8.05332ZM19.9999 3.99998C22.1216 3.99998 24.1565 4.84284 25.6568 6.34313C27.157 7.84342 27.9999 9.87825 27.9999 12C27.9995 12.3398 27.8694 12.6667 27.6361 12.9138C27.4028 13.1609 27.084 13.3096 26.7447 13.3295C26.4055 13.3495 26.0714 13.2391 25.8108 13.021C25.5502 12.8028 25.3827 12.4934 25.3426 12.156L25.3332 12C25.3337 10.6459 24.8189 9.34233 23.8932 8.35402C22.9676 7.36571 21.7005 6.76671 20.3492 6.67865L19.9999 6.66665C19.6463 6.66665 19.3071 6.52617 19.0571 6.27612C18.807 6.02608 18.6666 5.68694 18.6666 5.33332C18.6666 4.97969 18.807 4.64056 19.0571 4.39051C19.3071 4.14046 19.6463 3.99998 19.9999 3.99998V3.99998Z" fill="#B91E31"/>
</svg>
