<svg width="31" height="30" viewBox="0 0 31 30" fill="none" xmlns="http://www.w3.org/2000/svg">
<path d="M21.1804 10.1766C21.9139 10.1766 22.5085 9.58194 22.5085 8.84842C22.5085 8.1149 21.9139 7.52026 21.1804 7.52026C20.4469 7.52026 19.8522 8.1149 19.8522 8.84842C19.8522 9.58194 20.4469 10.1766 21.1804 10.1766Z" fill="#2D3970"/>
<path d="M15.2726 9.07422C14.1485 9.07422 13.0497 9.40754 12.115 10.032C11.1804 10.6565 10.452 11.5442 10.0218 12.5827C9.59164 13.6212 9.47908 14.7639 9.69838 15.8664C9.91767 16.9689 10.459 17.9815 11.2538 18.7764C12.0486 19.5712 13.0613 20.1125 14.1638 20.3318C15.2663 20.5511 16.409 20.4386 17.4475 20.0084C18.486 19.5782 19.3736 18.8498 19.9981 17.9151C20.6226 16.9805 20.956 15.8817 20.956 14.7576C20.956 13.2503 20.3572 11.8047 19.2913 10.7388C18.2255 9.673 16.7799 9.07422 15.2726 9.07422ZM15.2726 18.4469C14.5429 18.4469 13.8296 18.2306 13.2229 17.8252C12.6162 17.4198 12.1433 16.8436 11.8641 16.1695C11.5848 15.4953 11.5118 14.7535 11.6541 14.0379C11.7965 13.3222 12.1479 12.6648 12.6638 12.1489C13.1798 11.6329 13.8372 11.2815 14.5528 11.1392C15.2685 10.9968 16.0103 11.0699 16.6844 11.3491C17.3585 11.6284 17.9347 12.1012 18.3401 12.7079C18.7455 13.3146 18.9619 14.0279 18.9619 14.7576C18.9619 15.7361 18.5732 16.6745 17.8813 17.3664C17.1894 18.0582 16.251 18.4469 15.2726 18.4469Z" fill="#2D3970"/>
<path d="M15.2718 5.68329C18.227 5.68329 18.5775 5.69435 19.7442 5.74785C20.4459 5.75618 21.141 5.88503 21.7991 6.12877C22.2766 6.31295 22.7102 6.59505 23.0721 6.95691C23.4339 7.31877 23.716 7.75238 23.9002 8.22984C24.144 8.88795 24.2728 9.58305 24.2811 10.2848C24.3346 11.4515 24.3457 11.802 24.3457 14.7581C24.3457 17.7142 24.3346 18.0628 24.2811 19.2295C24.2728 19.9313 24.144 20.6264 23.9002 21.2845C23.716 21.762 23.4339 22.1956 23.0721 22.5574C22.7102 22.9193 22.2766 23.2014 21.7991 23.3856C21.141 23.6293 20.4459 23.7582 19.7442 23.7665C18.5775 23.82 18.227 23.8311 15.2718 23.8311C12.3167 23.8311 11.9662 23.82 10.7994 23.7665C10.0977 23.7582 9.4026 23.6293 8.74449 23.3856C8.26703 23.2014 7.83342 22.9193 7.47156 22.5574C7.1097 22.1956 6.8276 21.762 6.64342 21.2845C6.39968 20.6264 6.27083 19.9313 6.2625 19.2295C6.209 18.0628 6.19794 17.7123 6.19794 14.7572C6.19794 11.802 6.209 11.4515 6.2625 10.2848C6.27083 9.58305 6.39968 8.88795 6.64342 8.22984C6.8276 7.75238 7.1097 7.31877 7.47156 6.95691C7.83342 6.59505 8.26703 6.31295 8.74449 6.12877C9.4026 5.88503 10.0977 5.75618 10.7994 5.74785C11.9662 5.69435 12.3167 5.68329 15.2718 5.68329ZM15.2718 3.68921C12.2659 3.68921 11.8887 3.70212 10.7081 3.75562C9.7902 3.77415 8.88206 3.94817 8.0223 4.27028C7.28695 4.55463 6.61912 4.98949 6.06163 5.54698C5.50414 6.10448 5.06928 6.7723 4.78493 7.50766C4.46272 8.3677 4.2887 9.27617 4.27027 10.1944C4.21677 11.375 4.20386 11.7504 4.20386 14.7572C4.20386 17.764 4.21677 18.1403 4.27027 19.3209C4.2888 20.2388 4.46282 21.1469 4.78493 22.0067C5.06928 22.742 5.50414 23.4099 6.06163 23.9674C6.61912 24.5249 7.28695 24.9597 8.0223 25.2441C8.88235 25.5663 9.79081 25.7403 10.7091 25.7587C11.8896 25.8122 12.2659 25.8251 15.2718 25.8251C18.2777 25.8251 18.6549 25.8122 19.8355 25.7587C20.7537 25.7403 21.6622 25.5663 22.5223 25.2441C23.2576 24.9597 23.9254 24.5249 24.4829 23.9674C25.0404 23.4099 25.4753 22.742 25.7596 22.0067C26.0815 21.1466 26.2552 20.2381 26.2734 19.3199C26.3269 18.1394 26.3398 17.764 26.3398 14.7572C26.3398 11.7504 26.3269 11.3741 26.2734 10.1935C26.2548 9.27555 26.0808 8.36741 25.7587 7.50766C25.4744 6.7723 25.0395 6.10448 24.482 5.54698C23.9245 4.98949 23.2567 4.55463 22.5213 4.27028C21.6612 3.94838 20.7528 3.77467 19.8346 3.75654C18.654 3.7012 18.2786 3.68921 15.2718 3.68921Z" fill="#2D3970"/>
</svg>
