<svg width="18" height="19" viewBox="0 0 18 19" fill="none" xmlns="http://www.w3.org/2000/svg">
<path d="M9 14.6439L4.77526 17.8695C4.56593 18.0408 4.33756 18.1215 4.09017 18.1116C3.84277 18.1024 3.62392 18.0313 3.43362 17.8981C3.24332 17.7648 3.09602 17.5841 2.99174 17.3557C2.88669 17.1273 2.88174 16.8799 2.97689 16.6135L4.60399 11.3326L0.464884 8.39239C0.23652 8.24015 0.0937924 8.04033 0.0367014 7.79293C-0.0203897 7.54554 -0.0108744 7.31717 0.065247 7.10784C0.141368 6.89851 0.274581 6.71277 0.464884 6.55063C0.655188 6.38925 0.883552 6.30857 1.14998 6.30857H6.25963L7.91527 0.827821C8.01042 0.561396 8.1581 0.356629 8.3583 0.213521C8.55773 0.0711739 8.77164 0 9 0C9.22836 0 9.44227 0.0711739 9.6417 0.213521C9.8419 0.356629 9.98958 0.561396 10.0847 0.827821L11.7404 6.30857H16.85C17.1164 6.30857 17.3448 6.38925 17.5351 6.55063C17.7254 6.71277 17.8586 6.89851 17.9348 7.10784C18.0109 7.31717 18.0204 7.54554 17.9633 7.79293C17.9062 8.04033 17.7635 8.24015 17.5351 8.39239L13.396 11.3326L15.0231 16.6135C15.1183 16.8799 15.1137 17.1273 15.0094 17.3557C14.9044 17.5841 14.7567 17.7648 14.5664 17.8981C14.3761 18.0313 14.1572 18.1024 13.9098 18.1116C13.6624 18.1215 13.4341 18.0408 13.2247 17.8695L9 14.6439Z" fill="#FEB702"/>
</svg>
