<svg width="46" height="46" viewBox="0 0 46 46" fill="none" xmlns="http://www.w3.org/2000/svg">
<path d="M46 23C46 16.9 43.5768 11.0499 39.2635 6.73654C34.9501 2.42321 29.1 0 23 0C16.9 0 11.0499 2.42321 6.73654 6.73654C2.42321 11.0499 0 16.9 0 23C0 29.1 2.42321 34.9501 6.73654 39.2635C11.0499 43.5768 16.9 46 23 46C29.1 46 34.9501 43.5768 39.2635 39.2635C43.5768 34.9501 46 29.1 46 23ZM24.4375 33.0625C24.4375 33.4437 24.2861 33.8094 24.0165 34.079C23.7469 34.3485 23.3812 34.5 23 34.5C22.6188 34.5 22.2531 34.3485 21.9835 34.079C21.714 33.8094 21.5625 33.4437 21.5625 33.0625V16.4076L15.3927 22.5802C15.1228 22.8502 14.7567 23.0018 14.375 23.0018C13.9933 23.0018 13.6272 22.8502 13.3573 22.5802C13.0873 22.3103 12.9357 21.9442 12.9357 21.5625C12.9357 21.1808 13.0873 20.8147 13.3573 20.5448L21.9823 11.9198C22.1158 11.7859 22.2744 11.6797 22.4491 11.6072C22.6237 11.5347 22.8109 11.4974 23 11.4974C23.1891 11.4974 23.3763 11.5347 23.5509 11.6072C23.7256 11.6797 23.8842 11.7859 24.0177 11.9198L32.6427 20.5448C32.9127 20.8147 33.0643 21.1808 33.0643 21.5625C33.0643 21.9442 32.9127 22.3103 32.6427 22.5802C32.3728 22.8502 32.0067 23.0018 31.625 23.0018C31.2433 23.0018 30.8772 22.8502 30.6073 22.5802L24.4375 16.4076V33.0625Z" fill="#4D7F88"/>
</svg>
